<svg width="20" height="20" viewBox="0 0 20 20" fill="none" xmlns="http://www.w3.org/2000/svg">
<path d="M13.3588 8.05546C13.7493 7.66493 13.7493 7.03177 13.3588 6.64124C12.9682 6.25072 12.3351 6.25072 11.9445 6.64124L13.3588 8.05546ZM6.64124 11.9445C6.25072 12.3351 6.25072 12.9682 6.64124 13.3588C7.03177 13.7493 7.66493 13.7493 8.05546 13.3588L6.64124 11.9445ZM11.9445 13.3588C12.3351 13.7493 12.9682 13.7493 13.3588 13.3588C13.7493 12.9682 13.7493 12.3351 13.3588 11.9445L11.9445 13.3588ZM8.05546 6.64124C7.66493 6.25072 7.03177 6.25072 6.64124 6.64124C6.25072 7.03177 6.25072 7.66493 6.64124 8.05546L8.05546 6.64124ZM16.5 10C16.5 13.5899 13.5899 16.5 10 16.5V18.5C14.6944 18.5 18.5 14.6944 18.5 10H16.5ZM10 16.5C6.41015 16.5 3.5 13.5899 3.5 10H1.5C1.5 14.6944 5.30558 18.5 10 18.5V16.5ZM3.5 10C3.5 6.41015 6.41015 3.5 10 3.5V1.5C5.30558 1.5 1.5 5.30558 1.5 10H3.5ZM10 3.5C13.5899 3.5 16.5 6.41015 16.5 10H18.5C18.5 5.30558 14.6944 1.5 10 1.5V3.5ZM11.9445 6.64124L9.29289 9.29289L10.7071 10.7071L13.3588 8.05546L11.9445 6.64124ZM9.29289 9.29289L6.64124 11.9445L8.05546 13.3588L10.7071 10.7071L9.29289 9.29289ZM13.3588 11.9445L10.7071 9.29289L9.29289 10.7071L11.9445 13.3588L13.3588 11.9445ZM10.7071 9.29289L8.05546 6.64124L6.64124 8.05546L9.29289 10.7071L10.7071 9.29289Z" fill="#555E67"/>
</svg>
