<svg width="20" height="20" viewBox="0 0 20 20" fill="none" xmlns="http://www.w3.org/2000/svg">
<path d="M6.05956 17.5H14.3574C14.8275 17.5 15.2085 17.1162 15.2085 16.6429V14.3531C15.2085 14.1701 15.1504 13.992 15.0426 13.8447L12.5883 10.4901C12.3736 10.1966 12.3667 9.79846 12.5711 9.4976L14.8471 6.14742C14.9439 6.00485 14.9957 5.83614 14.9957 5.6634V3.35714C14.9957 2.88376 14.6147 2.5 14.1447 2.5H6.05956C5.58953 2.5 5.2085 2.88376 5.2085 3.35714V5.64689C5.2085 5.82986 5.26663 6.00804 5.37441 6.15534L7.81522 9.49154C8.03644 9.79391 8.03644 10.2061 7.81522 10.5085L5.37441 13.8447C5.26663 13.992 5.2085 14.1701 5.2085 14.3531V16.6429C5.2085 17.1162 5.58953 17.5 6.05956 17.5Z" stroke="#555E67" stroke-width="2" stroke-linecap="round" stroke-linejoin="round"/>
</svg>
