<svg width="434" height="7" viewBox="0 0 434 7" fill="none" xmlns="http://www.w3.org/2000/svg">
<path d="M0.333333 3.5C0.333333 4.97276 1.52724 6.16667 3 6.16667C4.47276 6.16667 5.66667 4.97276 5.66667 3.5C5.66667 2.02724 4.47276 0.833333 3 0.833333C1.52724 0.833333 0.333333 2.02724 0.333333 3.5ZM428.333 3.5C428.333 4.97276 429.527 6.16667 431 6.16667C432.473 6.16667 433.667 4.97276 433.667 3.5C433.667 2.02724 432.473 0.833333 431 0.833333C429.527 0.833333 428.333 2.02724 428.333 3.5ZM3 4H431V3H3V4Z" fill="#EAC140"/>
</svg>
