<svg width="231" height="302" viewBox="0 0 231 302" fill="none" xmlns="http://www.w3.org/2000/svg">
<g clip-path="url(#clip0_1218_12962)">
<path d="M41.3508 108.959C24.1005 108.959 10.0612 94.9036 10.0612 77.6337C10.0612 60.3638 24.1005 46.3086 41.3508 46.3086C58.6011 46.3086 72.6404 60.3638 72.6404 77.6337C72.6404 94.9215 58.6011 108.959 41.3508 108.959ZM41.3508 62.5605C33.0378 62.5605 26.2947 69.3292 26.2947 77.6337C26.2947 85.9561 33.0556 92.7069 41.3508 92.7069C49.6637 92.7069 56.4069 85.9383 56.4069 77.6337C56.4069 69.3292 49.6637 62.5605 41.3508 62.5605Z" fill="#EAC140"/>
<path d="M50.4665 54.4352H33.2519V38.0226C33.2519 36.7546 34.2865 35.7188 35.5531 35.7188H48.1653C49.4318 35.7188 50.4665 36.7546 50.4665 38.0226V54.4352Z" fill="#EAC140"/>
<path d="M48.1653 119.55H35.5531C34.2865 119.55 33.2519 118.515 33.2519 117.247V100.834H50.4665V117.247C50.4665 118.533 49.4318 119.55 48.1653 119.55Z" fill="#EAC140"/>
<path d="M18.6953 69.0254V86.2596H2.30123C1.03466 86.2596 0 85.2237 0 83.9557V71.3292C0 70.0612 1.03466 69.0254 2.30123 69.0254H18.6953Z" fill="#EAC140"/>
<path d="M83.7362 71.3292V83.9557C83.7362 85.2237 82.7016 86.2596 81.435 86.2596H65.041V69.0254H81.435C82.7016 69.0254 83.7362 70.0612 83.7362 71.3292Z" fill="#EAC140"/>
<path d="M31.5572 55.1493L19.391 67.3293L7.79564 55.7208C6.90369 54.8279 6.90369 53.3634 7.79564 52.4704L16.7151 43.5408C17.6071 42.6479 19.0699 42.6479 19.9618 43.5408L31.5572 55.1493Z" fill="#EAC140"/>
<path d="M75.9227 102.816L67.0032 111.746C66.1113 112.639 64.6485 112.639 63.7565 111.746L52.1612 100.137L64.3274 87.957L75.9227 99.5655C76.8325 100.459 76.8325 101.923 75.9227 102.816Z" fill="#EAC140"/>
<path d="M64.3452 67.3293L52.179 55.1493L63.7744 43.5408C64.6663 42.6479 66.1291 42.6479 67.0211 43.5408L75.9406 52.4704C76.8325 53.3634 76.8325 54.8279 75.9406 55.7208L64.3452 67.3293Z" fill="#EAC140"/>
<path d="M16.7151 111.746L7.79564 102.816C6.90369 101.923 6.90369 100.459 7.79564 99.5655L19.391 87.957L31.5572 100.137L19.9618 111.746C19.0699 112.639 17.6249 112.639 16.7151 111.746Z" fill="#EAC140"/>
<path d="M193 276.908V25.0923V21.5204C193 9.644 183.367 0 171.504 0H65.3977C53.5169 0 43.9017 9.644 43.9017 21.5204V25.0923V280.497C43.9017 292.392 53.5169 302.018 65.3977 302.018H171.504C180.37 302.018 187.969 296.642 191.252 288.981C192.376 286.373 193 283.516 193 280.497V276.908Z" fill="white"/>
<path d="M97.3473 16.4475C98.4803 16.4475 99.3988 15.5279 99.3988 14.3937C99.3988 13.2594 98.4803 12.3398 97.3473 12.3398C96.2143 12.3398 95.2958 13.2594 95.2958 14.3937C95.2958 15.5279 96.2143 16.4475 97.3473 16.4475Z" fill="white"/>
<path d="M141.963 16.9297H106.267C105.304 16.9297 104.501 16.1439 104.501 15.1617V13.6079C104.501 12.6435 105.286 11.8398 106.267 11.8398H141.963C142.926 11.8398 143.729 12.6257 143.729 13.6079V15.1795C143.711 16.1439 142.926 16.9297 141.963 16.9297Z" fill="#3C63FC"/>
<path d="M126.621 285.606C126.621 290.124 122.964 293.803 118.433 293.803C113.92 293.803 110.245 290.142 110.245 285.606C110.245 281.087 113.902 277.408 118.433 277.408C122.964 277.408 126.621 281.087 126.621 285.606Z" fill="#3C63FC"/>
<path d="M185.026 26.9316H51.8579V271.353H185.026V26.9316Z" fill="#EAEAEA"/>
<path d="M139.019 108.958C129.315 105.726 122.589 100.672 119.2 97.6714C117.737 96.3856 115.579 96.3856 114.116 97.6714C110.727 100.672 104.001 105.726 94.2969 108.958C85.4131 111.905 76.0833 112.602 71.0705 112.745C69.0012 112.798 67.3778 114.531 67.4492 116.602C67.8417 128.264 70.1607 163.358 83.5756 179.145C98.7923 197.04 116.649 200.201 116.649 200.201C116.649 200.201 134.506 197.04 149.723 179.145C163.138 163.376 165.439 128.264 165.849 116.602C165.92 114.531 164.297 112.798 162.228 112.745C157.233 112.602 147.903 111.923 139.019 108.958Z" fill="#23A047"/>
<path d="M96.7765 150.463L110.851 164.875L138.377 132.604" fill="#23A047"/>
<path d="M96.7765 150.463L110.851 164.875L138.377 132.604" stroke="white" stroke-width="5.0251" stroke-miterlimit="10" stroke-linecap="round" stroke-linejoin="round"/>
<path d="M69.0547 39.9148C69.0547 41.8614 67.4849 43.433 65.5404 43.433C63.596 43.433 62.0262 41.8614 62.0262 39.9148C62.0262 37.9681 63.596 36.3965 65.5404 36.3965C67.4849 36.3965 69.0547 37.9681 69.0547 39.9148Z" fill="#3C6BE0"/>
<path d="M77.225 43.433C79.1659 43.433 80.7393 41.8578 80.7393 39.9148C80.7393 37.9717 79.1659 36.3965 77.225 36.3965C75.2841 36.3965 73.7107 37.9717 73.7107 39.9148C73.7107 41.8578 75.2841 43.433 77.225 43.433Z" fill="#DF7246"/>
<path d="M92.4238 39.9148C92.4238 41.8614 90.8539 43.433 88.9095 43.433C86.965 43.433 85.3952 41.8614 85.3952 39.9148C85.3952 37.9681 86.965 36.3965 88.9095 36.3965C90.8539 36.3965 92.4238 37.9681 92.4238 39.9148Z" stroke="#D5B2B2" stroke-width="0.2957" stroke-miterlimit="10"/>
<path d="M166.527 252.849H69.1439C65.9329 252.849 63.3284 250.242 63.3284 247.027C63.3284 243.813 65.9329 241.205 69.1439 241.205H166.527C169.738 241.205 172.342 243.813 172.342 247.027C172.342 250.26 169.738 252.849 166.527 252.849Z" fill="white"/>
<path d="M63.3284 220.061H149.205" stroke="white" stroke-width="0.4758" stroke-miterlimit="10"/>
<path d="M63.3284 231.92H107.266" stroke="white" stroke-width="0.4758" stroke-miterlimit="10"/>
<path d="M63.3284 63.0957H169.417" stroke="white" stroke-width="0.4758" stroke-miterlimit="10"/>
<path d="M63.3284 74.9551H126.621" stroke="white" stroke-width="0.4758" stroke-miterlimit="10"/>
</g>
<path d="M204.143 279.304C193.237 279.304 184.361 270.418 184.361 259.5C184.361 248.581 193.237 239.695 204.143 239.695C215.049 239.695 223.925 248.581 223.925 259.5C223.925 270.429 215.049 279.304 204.143 279.304ZM204.143 249.97C198.887 249.97 194.624 254.249 194.624 259.5C194.624 264.761 198.898 269.029 204.143 269.029C209.398 269.029 213.662 264.75 213.662 259.5C213.662 254.249 209.398 249.97 204.143 249.97Z" fill="#EAC140"/>
<path d="M209.906 244.833H199.023V234.457C199.023 233.655 199.677 233 200.477 233H208.451C209.252 233 209.906 233.655 209.906 234.457V244.833Z" fill="#EAC140"/>
<path d="M208.451 286.001H200.477C199.677 286.001 199.022 285.346 199.022 284.544V274.168H209.906V284.544C209.906 285.357 209.252 286.001 208.451 286.001Z" fill="#EAC140"/>
<path d="M189.82 254.059V264.954H179.455C178.654 264.954 178 264.3 178 263.498V255.515C178 254.713 178.654 254.059 179.455 254.059H189.82Z" fill="#EAC140"/>
<path d="M230.94 255.515V263.498C230.94 264.3 230.286 264.954 229.485 264.954H219.12V254.059H229.485C230.286 254.059 230.94 254.713 230.94 255.515Z" fill="#EAC140"/>
<path d="M197.951 245.284L190.259 252.985L182.929 245.645C182.365 245.081 182.365 244.155 182.929 243.59L188.568 237.945C189.132 237.38 190.056 237.38 190.62 237.945L197.951 245.284Z" fill="#EAC140"/>
<path d="M226 275.42L220.361 281.065C219.797 281.63 218.872 281.63 218.308 281.065L210.977 273.726L218.669 266.025L226 273.365C226.575 273.929 226.575 274.855 226 275.42Z" fill="#EAC140"/>
<path d="M218.68 252.985L210.989 245.284L218.32 237.945C218.884 237.38 219.808 237.38 220.372 237.945L226.011 243.59C226.575 244.155 226.575 245.081 226.011 245.645L218.68 252.985Z" fill="#EAC140"/>
<path d="M188.568 281.065L182.929 275.42C182.365 274.855 182.365 273.929 182.929 273.365L190.259 266.025L197.951 273.726L190.62 281.065C190.056 281.63 189.143 281.63 188.568 281.065Z" fill="#EAC140"/>
<defs>
<clipPath id="clip0_1218_12962">
<rect width="193" height="302" fill="white"/>
</clipPath>
</defs>
</svg>
