<svg width="28" height="28" viewBox="0 0 28 28" fill="none" xmlns="http://www.w3.org/2000/svg">
<path d="M15.0161 7.38104C16.4159 7.61565 17.6875 8.27682 18.7027 9.28991C19.7179 10.303 20.3751 11.572 20.6155 12.969M15.2298 2.80078C17.7196 3.22201 19.9904 4.4004 21.7963 6.19731C23.6023 7.99954 24.7777 10.2657 25.1998 12.7504M23.2549 22.6361C23.2549 22.6361 21.9031 23.9637 21.5719 24.353C21.0322 24.9288 20.3964 25.2008 19.5629 25.2008C19.4828 25.2008 19.3973 25.2008 19.3171 25.1954C17.7303 25.0941 16.2556 24.4756 15.1496 23.9477C12.1255 22.4868 9.47003 20.4126 7.26338 17.7839C5.44142 15.5924 4.22322 13.5662 3.41643 11.3907C2.91953 10.063 2.73787 9.02863 2.81802 8.05286C2.87145 7.42901 3.11188 6.9118 3.55535 6.46924L5.37731 4.651C5.63911 4.40573 5.91695 4.27243 6.18944 4.27243C6.52605 4.27243 6.79854 4.47505 6.96951 4.64567C6.97486 4.651 6.9802 4.65634 6.98554 4.66167C7.31146 4.9656 7.62136 5.28019 7.94728 5.61611C8.11291 5.78673 8.28389 5.95736 8.45486 6.13332L9.9135 7.58897C10.4799 8.15417 10.4799 8.67671 9.9135 9.24191C9.75855 9.39654 9.60895 9.55117 9.454 9.70047C9.00519 10.159 9.35776 9.80718 8.89292 10.2231C8.88223 10.2337 8.87154 10.2391 8.8662 10.2497C8.4067 10.7083 8.49219 11.1562 8.58837 11.4601C8.59371 11.4761 8.59905 11.4921 8.60439 11.5081C8.98375 12.4252 9.51804 13.289 10.3302 14.3181L10.3355 14.3234C11.8102 16.1363 13.365 17.5493 15.0801 18.6317C15.2991 18.7704 15.5236 18.8823 15.7373 18.989C15.9296 19.085 16.1113 19.1756 16.2662 19.2716C16.2876 19.2823 16.309 19.2982 16.3303 19.3089C16.512 19.3996 16.683 19.4422 16.8593 19.4422C17.3028 19.4422 17.5806 19.1649 17.6714 19.0743L18.7187 18.0291C18.9004 17.8479 19.1889 17.6292 19.5255 17.6292C19.8568 17.6292 20.1293 17.8372 20.2949 18.0185C20.3002 18.0238 20.3002 18.0238 20.3056 18.0291L23.2496 20.9671C23.7999 21.511 23.2549 22.6361 23.2549 22.6361Z" stroke="white" stroke-width="2" stroke-linecap="round" stroke-linejoin="round"/>
</svg>
