<svg width="30" height="30" viewBox="0 0 30 30" fill="none" xmlns="http://www.w3.org/2000/svg">
<path d="M19.6846 11.7296C20.0751 11.3391 20.0751 10.7059 19.6846 10.3154C19.2941 9.92489 18.6609 9.92489 18.2704 10.3154L19.6846 11.7296ZM10.3154 18.2704C9.92489 18.6609 9.92489 19.2941 10.3154 19.6846C10.7059 20.0751 11.3391 20.0751 11.7296 19.6846L10.3154 18.2704ZM18.2704 19.6846C18.6609 20.0751 19.2941 20.0751 19.6846 19.6846C20.0751 19.2941 20.0751 18.6609 19.6846 18.2704L18.2704 19.6846ZM11.7296 10.3154C11.3391 9.92489 10.7059 9.92489 10.3154 10.3154C9.92489 10.7059 9.92489 11.3391 10.3154 11.7296L11.7296 10.3154ZM25.25 15C25.25 20.6609 20.6609 25.25 15 25.25V27.25C21.7655 27.25 27.25 21.7655 27.25 15H25.25ZM15 25.25C9.33908 25.25 4.75 20.6609 4.75 15H2.75C2.75 21.7655 8.23451 27.25 15 27.25V25.25ZM4.75 15C4.75 9.33908 9.33908 4.75 15 4.75V2.75C8.23451 2.75 2.75 8.23451 2.75 15H4.75ZM15 4.75C20.6609 4.75 25.25 9.33908 25.25 15H27.25C27.25 8.23451 21.7655 2.75 15 2.75V4.75ZM18.2704 10.3154L14.2929 14.2929L15.7071 15.7071L19.6846 11.7296L18.2704 10.3154ZM14.2929 14.2929L10.3154 18.2704L11.7296 19.6846L15.7071 15.7071L14.2929 14.2929ZM19.6846 18.2704L15.7071 14.2929L14.2929 15.7071L18.2704 19.6846L19.6846 18.2704ZM15.7071 14.2929L11.7296 10.3154L10.3154 11.7296L14.2929 15.7071L15.7071 14.2929Z" fill="#EB5757"/>
</svg>
